<?xml version="1.0" encoding="UTF-8"?>
<!DOCTYPE svg PUBLIC "-//W3C//DTD SVG 1.1//EN" "http://www.w3.org/Graphics/SVG/1.1/DTD/svg11.dtd">
<svg xmlns="http://www.w3.org/2000/svg" xml:space="preserve" width="1970px" height="756px" version="1.1" style="shape-rendering:geometricPrecision; text-rendering:geometricPrecision; image-rendering:optimizeQuality; fill-rule:evenodd; clip-rule:evenodd"
viewBox="0 0 2067.608 793.458"
 xmlns:xlink="http://www.w3.org/1999/xlink">
 <g id="Capa_x0020_1">
  <path fill="#B3B3B3" d="M758.822 146.937l549.964 0c32.326,0 58.774,26.448 58.774,58.774l0 382.036c0,32.326 -26.448,58.774 -58.774,58.774l-549.964 0c-32.326,0 -58.774,-26.448 -58.774,-58.774l0 -382.036c0,-32.326 26.448,-58.774 58.774,-58.774zm86.075 70.297c41.161,0 74.529,33.368 74.529,74.529 0,41.161 -33.368,74.529 -74.529,74.529 -41.161,0 -74.529,-33.368 -74.529,-74.529 0,-41.161 33.368,-74.529 74.529,-74.529zm437.65 204.731l-116.603 -116.603c-5.915,-5.916 -15.565,-5.916 -21.48,0l-169.7 169.7c-3.055,3.054 -8.037,3.054 -11.091,0l-67.593 -67.593c-5.915,-5.915 -15.565,-5.915 -21.48,0l-91.637 91.637 0 61.825 499.584 0 0 -138.966z"/>
  <rect fill="none" width="2067.608" height="793.458"/>
 </g>
</svg>
